# xmcd
#
# Track frame offsets:
#	150
#	10192
#	27769
#	55588
#	70281
#	83401
#	99302
#	118847
#	135629
#	154803
#	164783
#	181327
#
# Disc length: 2504 seconds
#
# Revision: 1
# Processed by: cddbd v1.4PL0 Copyright (c) Steve Scherf et al.
# Submitted via: audiograbber 1.82.01
#
DISCID=9309c60c
DTITLE=Lancaster County Prison - Every Goddamn Time
DYEAR=2003
DGENRE=Country
TTITLE0=Ain´t Got The Time
TTITLE1=Iron Clad
TTITLE2=Town I Loved So Well
TTITLE3=Country Roads
TTITLE4=Home Swet Brooklyn
TTITLE5=Satan Is Waiting
TTITLE6=Ate His Thumb
TTITLE7=El Paso City
TTITLE8=Without You
TTITLE9=I Like Trains
TTITLE10=Long Black Veil
TTITLE11=[bonus track]
EXTD=Coolidge Records CR039
EXTT0=
EXTT1=
EXTT2=
EXTT3=
EXTT4=
EXTT5=
EXTT6=
EXTT7=
EXTT8=
EXTT9=
EXTT10=
EXTT11=
PLAYORDER=
